<svg xmlns="http://www.w3.org/2000/svg" width="67" height="67" viewBox="0 0 67 67">
  <defs>
    <style>
      .cls-1 {
        fill: #e478ad;
        fill-rule: evenodd;
      }
    </style>
  </defs>
  <path class="cls-1" d="M1073.42,2465.58a1.2,1.2,0,0,0-1.12,1.12A1.115,1.115,0,1,0,1073.42,2465.58Zm3.35-3.35a1.2,1.2,0,0,0-1.12,1.12A1.115,1.115,0,1,0,1076.77,2462.23Zm-6.7,0a1.2,1.2,0,0,0-1.12,1.12A1.115,1.115,0,1,0,1070.07,2462.23Zm-3.35,3.35a1.2,1.2,0,0,0-1.12,1.12A1.115,1.115,0,1,0,1066.72,2465.58Zm-6.7,0a1.2,1.2,0,0,0-1.12,1.12A1.115,1.115,0,1,0,1060.02,2465.58Zm3.35-3.35a1.2,1.2,0,0,0-1.12,1.12A1.115,1.115,0,1,0,1063.37,2462.23Zm-6.7,0a1.2,1.2,0,0,0-1.12,1.12A1.115,1.115,0,1,0,1056.67,2462.23Zm-3.35,3.35a1.2,1.2,0,0,0-1.12,1.12A1.115,1.115,0,1,0,1053.32,2465.58Zm-6.7,0a1.2,1.2,0,0,0-1.12,1.12A1.115,1.115,0,1,0,1046.62,2465.58Zm3.35-3.35a1.2,1.2,0,0,0-1.12,1.12A1.115,1.115,0,1,0,1049.97,2462.23Zm23.45-3.35a1.2,1.2,0,0,0-1.12,1.12A1.115,1.115,0,1,0,1073.42,2458.88Zm0-6.7a1.2,1.2,0,0,0-1.12,1.12A1.115,1.115,0,1,0,1073.42,2452.18Zm3.35,3.35a1.2,1.2,0,0,0-1.12,1.12A1.115,1.115,0,1,0,1076.77,2455.53Zm-6.7,0a1.2,1.2,0,0,0-1.12,1.12A1.115,1.115,0,1,0,1070.07,2455.53Zm-3.35,3.35a1.2,1.2,0,0,0-1.12,1.12A1.115,1.115,0,1,0,1066.72,2458.88Zm-6.7,0a1.2,1.2,0,0,0-1.12,1.12A1.115,1.115,0,1,0,1060.02,2458.88Zm6.7-6.7a1.2,1.2,0,0,0-1.12,1.12A1.115,1.115,0,1,0,1066.72,2452.18Zm-6.7,0a1.2,1.2,0,0,0-1.12,1.12A1.115,1.115,0,1,0,1060.02,2452.18Zm3.35,3.35a1.2,1.2,0,0,0-1.12,1.12A1.115,1.115,0,1,0,1063.37,2455.53Zm-6.7,0a1.2,1.2,0,0,0-1.12,1.12A1.115,1.115,0,1,0,1056.67,2455.53Zm-3.35,3.35a1.2,1.2,0,0,0-1.12,1.12A1.115,1.115,0,1,0,1053.32,2458.88Zm-6.7,0a1.2,1.2,0,0,0-1.12,1.12A1.115,1.115,0,1,0,1046.62,2458.88Zm6.7-6.7a1.2,1.2,0,0,0-1.12,1.12A1.115,1.115,0,1,0,1053.32,2452.18Zm-6.7,0a1.2,1.2,0,0,0-1.12,1.12A1.115,1.115,0,1,0,1046.62,2452.18Zm3.35,3.35a1.2,1.2,0,0,0-1.12,1.12A1.115,1.115,0,1,0,1049.97,2455.53Zm23.45-10.05a1.2,1.2,0,0,0-1.12,1.12A1.115,1.115,0,1,0,1073.42,2445.48Zm3.35,3.35a1.2,1.2,0,0,0-1.12,1.12A1.115,1.115,0,1,0,1076.77,2448.83Zm-6.7,0a1.2,1.2,0,0,0-1.12,1.12A1.115,1.115,0,1,0,1070.07,2448.83Zm6.7-6.7a1.2,1.2,0,0,0-1.12,1.12A1.115,1.115,0,1,0,1076.77,2442.13Zm-6.7,0a1.2,1.2,0,0,0-1.12,1.12A1.115,1.115,0,1,0,1070.07,2442.13Zm-3.35,3.35a1.2,1.2,0,0,0-1.12,1.12A1.115,1.115,0,1,0,1066.72,2445.48Zm-6.7,0a1.2,1.2,0,0,0-1.12,1.12A1.115,1.115,0,1,0,1060.02,2445.48Zm3.35,3.35a1.2,1.2,0,0,0-1.12,1.12A1.115,1.115,0,1,0,1063.37,2448.83Zm-6.7,0a1.2,1.2,0,0,0-1.12,1.12A1.115,1.115,0,1,0,1056.67,2448.83Zm6.7-6.7a1.2,1.2,0,0,0-1.12,1.12A1.115,1.115,0,1,0,1063.37,2442.13Zm-6.7,0a1.2,1.2,0,0,0-1.12,1.12A1.115,1.115,0,1,0,1056.67,2442.13Zm-3.35,3.35a1.2,1.2,0,0,0-1.12,1.12A1.115,1.115,0,1,0,1053.32,2445.48Zm-6.7,0a1.2,1.2,0,0,0-1.12,1.12A1.115,1.115,0,1,0,1046.62,2445.48Zm3.35,3.35a1.2,1.2,0,0,0-1.12,1.12A1.115,1.115,0,1,0,1049.97,2448.83Zm0-6.7a1.2,1.2,0,0,0-1.12,1.12A1.115,1.115,0,1,0,1049.97,2442.13Zm23.45-3.35a1.2,1.2,0,0,0-1.12,1.12A1.115,1.115,0,1,0,1073.42,2438.78Zm0-6.7a1.2,1.2,0,0,0-1.12,1.12A1.115,1.115,0,1,0,1073.42,2432.08Zm3.35,3.35a1.2,1.2,0,0,0-1.12,1.12A1.115,1.115,0,1,0,1076.77,2435.43Zm-6.7,0a1.2,1.2,0,0,0-1.12,1.12A1.115,1.115,0,1,0,1070.07,2435.43Zm-3.35,3.35a1.2,1.2,0,0,0-1.12,1.12A1.115,1.115,0,1,0,1066.72,2438.78Zm-6.7,0a1.2,1.2,0,0,0-1.12,1.12A1.115,1.115,0,1,0,1060.02,2438.78Zm6.7-6.7a1.2,1.2,0,0,0-1.12,1.12A1.115,1.115,0,1,0,1066.72,2432.08Zm-6.7,0a1.2,1.2,0,0,0-1.12,1.12A1.115,1.115,0,1,0,1060.02,2432.08Zm3.35,3.35a1.2,1.2,0,0,0-1.12,1.12A1.115,1.115,0,1,0,1063.37,2435.43Zm-6.7,0a1.2,1.2,0,0,0-1.12,1.12A1.115,1.115,0,1,0,1056.67,2435.43Zm-3.35,3.35a1.2,1.2,0,0,0-1.12,1.12A1.115,1.115,0,1,0,1053.32,2438.78Zm-6.7,0a1.2,1.2,0,0,0-1.12,1.12A1.115,1.115,0,1,0,1046.62,2438.78Zm6.7-6.7a1.2,1.2,0,0,0-1.12,1.12A1.115,1.115,0,1,0,1053.32,2432.08Zm-6.7,0a1.2,1.2,0,0,0-1.12,1.12A1.115,1.115,0,1,0,1046.62,2432.08Zm3.35,3.35a1.2,1.2,0,0,0-1.12,1.12A1.115,1.115,0,1,0,1049.97,2435.43Zm29.03-3.31a1.06,1.06,0,0,0-1.12-1.12h-64.76a1.06,1.06,0,0,0-1.12,1.12v64.76a1.06,1.06,0,0,0,1.12,1.12h32.38a1.06,1.06,0,0,0,1.12-1.12v-13.4h26.8c3.12,0,5.58-3.46,5.58-7.81h0v-43.55h0Zm-32.38,1.11h30.15v36.15a5.758,5.758,0,0,0-.99-0.81,1.3,1.3,0,0,0-.15-0.1,0.925,0.925,0,0,0-.1-0.05c-0.04-.03-0.09-0.05-0.13-0.08s-0.09-.04-0.13-0.06a1.037,1.037,0,0,0-.1-0.04,1.009,1.009,0,0,0-.15-0.07,0.142,0.142,0,0,0-.06-0.02,3.752,3.752,0,0,0-.81-0.23c-0.02-.01-0.05-0.01-0.08-0.02a0.772,0.772,0,0,1-.15-0.02c-0.04,0-.09-0.01-0.13-0.01s-0.08-.01-0.11-0.01a2.348,2.348,0,0,0-.26-0.01h-26.8v-34.62Zm-5.59,48.02c-1.06,0-2.04-.91-2.66-2.27a8.047,8.047,0,0,1-.69-3.31,8.992,8.992,0,0,1,.21-1.9c0.49-2.12,1.75-3.69,3.14-3.69h28.45a10.277,10.277,0,0,0,0,11.17h-28.45Zm3.35,14.52h-30.15v-62.54h30.15v34.62h-3.35c-3.12,0-5.58,3.46-5.58,7.82s2.46,7.81,5.58,7.81h3.35v12.29h0Zm29.04-14.52c-1.06,0-2.05-.91-2.67-2.27a8.046,8.046,0,0,1-.68-3.31,8.382,8.382,0,0,1,.21-1.9c0.48-2.12,1.74-3.68,3.13-3.69h0.01c1.21,0,2.31,1.18,2.9,2.88a8.321,8.321,0,0,1,.45,2.71C1076.77,2478.68,1075.2,2481.25,1073.42,2481.25Z" transform="translate(-1012 -2431)"/>
</svg>
