<svg xmlns="http://www.w3.org/2000/svg" width="69" height="76" viewBox="0 0 69 76">
  <defs>
    <style>
      .cls-1 {
        fill: #78b8e4;
        fill-rule: evenodd;
      }
    </style>
  </defs>
  <path class="cls-1" d="M1075.72,2180.44h-2.13V2113.4a1.282,1.282,0,0,0-1.28-1.28h-23.85a1.28,1.28,0,0,0-1.27,1.28v5.56h-2.56v-5.56a1.282,1.282,0,0,0-1.28-1.28h-5.54v-3.84a1.275,1.275,0,1,0-2.55,0v3.84h-5.54a1.289,1.289,0,0,0-1.28,1.28v5.56h-3.83a1.282,1.282,0,0,0-1.28,1.28v10.67h-10.64a1.276,1.276,0,0,0-1.28,1.28v48.25h-2.13a1.28,1.28,0,1,0,0,2.56h66.44A1.28,1.28,0,1,0,1075.72,2180.44ZM1031,2114.69h11.07v4.27H1031v-4.27Zm-4.26,65.75h-0.85v-2.14a1.28,1.28,0,0,0-2.56,0v2.14h-0.85v-4.27h4.26v4.27Zm8.52-32.88v32.88h-5.96v-5.55a1.282,1.282,0,0,0-1.28-1.28h-6.82a1.274,1.274,0,0,0-1.27,1.28v5.55h-5.97v-46.97h21.3v14.09h0Zm1.28-16.65h-10.65v-9.39h21.3v24.76h-9.38v-4.27h3.84a1.28,1.28,0,0,0,0-2.56h-3.84v-4.27h3.84a1.28,1.28,0,0,0,0-2.56h-3.84v-0.43A1.274,1.274,0,0,0,1036.54,2130.91Zm22.57,49.53h-21.3v-31.6h21.3v31.6Zm11.93,0h-9.37v-34.59a1.28,1.28,0,0,0-2.56,0v0.43h-2.55v-0.43a1.28,1.28,0,0,0-2.56,0v0.43h-4.26v-31.59h21.3v65.75h0Zm-27.69-2.56a1.282,1.282,0,0,0,1.28-1.28v-23.91a1.28,1.28,0,1,0-2.56,0v23.91A1.289,1.289,0,0,0,1043.35,2177.88Zm5.11,0a1.282,1.282,0,0,0,1.28-1.28v-23.91a1.275,1.275,0,1,0-2.55,0v23.91A1.28,1.28,0,0,0,1048.46,2177.88Zm5.11,0a1.282,1.282,0,0,0,1.28-1.28v-23.91a1.275,1.275,0,1,0-2.55,0v23.91A1.28,1.28,0,0,0,1053.57,2177.88Zm1.71-54.66a1.282,1.282,0,0,0,1.28-1.28v-1.7a1.28,1.28,0,0,0-2.56,0v1.7A1.276,1.276,0,0,0,1055.28,2123.22Zm5.11,0a1.282,1.282,0,0,0,1.28-1.28v-1.7a1.28,1.28,0,0,0-2.56,0v1.7A1.276,1.276,0,0,0,1060.39,2123.22Zm5.11,0a1.276,1.276,0,0,0,1.28-1.28v-1.7a1.28,1.28,0,0,0-2.56,0v1.7A1.276,1.276,0,0,0,1065.5,2123.22Zm-10.22,8.54a1.282,1.282,0,0,0,1.28-1.28v-1.71a1.28,1.28,0,1,0-2.56,0v1.71A1.276,1.276,0,0,0,1055.28,2131.76Zm5.11,0a1.282,1.282,0,0,0,1.28-1.28v-1.71a1.28,1.28,0,1,0-2.56,0v1.71A1.276,1.276,0,0,0,1060.39,2131.76Zm5.11,0a1.276,1.276,0,0,0,1.28-1.28v-1.71a1.28,1.28,0,1,0-2.56,0v1.71A1.276,1.276,0,0,0,1065.5,2131.76Zm-10.22,8.54a1.282,1.282,0,0,0,1.28-1.28v-1.71a1.28,1.28,0,0,0-2.56,0v1.71A1.276,1.276,0,0,0,1055.28,2140.3Zm5.11,0a1.282,1.282,0,0,0,1.28-1.28v-1.71a1.28,1.28,0,0,0-2.56,0v1.71A1.276,1.276,0,0,0,1060.39,2140.3Zm5.11,0a1.276,1.276,0,0,0,1.28-1.28v-1.71a1.28,1.28,0,0,0-2.56,0v1.71A1.276,1.276,0,0,0,1065.5,2140.3Zm-46,3.42a1.276,1.276,0,0,0,1.28-1.28v-1.71a1.28,1.28,0,1,0-2.56,0v1.71A1.276,1.276,0,0,0,1019.5,2143.72Zm5.11,0a1.276,1.276,0,0,0,1.28-1.28v-1.71a1.28,1.28,0,0,0-2.56,0v1.71A1.282,1.282,0,0,0,1024.61,2143.72Zm5.11,0a1.276,1.276,0,0,0,1.28-1.28v-1.71a1.28,1.28,0,1,0-2.56,0v1.71A1.282,1.282,0,0,0,1029.72,2143.72Zm-10.22,8.54a1.276,1.276,0,0,0,1.28-1.28v-1.71a1.28,1.28,0,1,0-2.56,0v1.71A1.276,1.276,0,0,0,1019.5,2152.26Zm5.11,0a1.276,1.276,0,0,0,1.28-1.28v-1.71a1.28,1.28,0,0,0-2.56,0v1.71A1.282,1.282,0,0,0,1024.61,2152.26Zm5.11,0a1.276,1.276,0,0,0,1.28-1.28v-1.71a1.28,1.28,0,1,0-2.56,0v1.71A1.282,1.282,0,0,0,1029.72,2152.26Zm-10.22,8.54a1.282,1.282,0,0,0,1.28-1.28v-1.71a1.28,1.28,0,0,0-2.56,0v1.71A1.282,1.282,0,0,0,1019.5,2160.8Zm5.11,0a1.282,1.282,0,0,0,1.28-1.28v-1.71a1.28,1.28,0,1,0-2.56,0v1.71A1.289,1.289,0,0,0,1024.61,2160.8Zm5.11,0a1.282,1.282,0,0,0,1.28-1.28v-1.71a1.28,1.28,0,0,0-2.56,0v1.71A1.289,1.289,0,0,0,1029.72,2160.8Zm-10.22,8.54a1.282,1.282,0,0,0,1.28-1.28v-1.71a1.28,1.28,0,0,0-2.56,0v1.71A1.282,1.282,0,0,0,1019.5,2169.34Zm5.11,0a1.282,1.282,0,0,0,1.28-1.28v-1.71a1.28,1.28,0,1,0-2.56,0v1.71A1.289,1.289,0,0,0,1024.61,2169.34Zm5.11,0a1.282,1.282,0,0,0,1.28-1.28v-1.71a1.28,1.28,0,0,0-2.56,0v1.71A1.289,1.289,0,0,0,1029.72,2169.34Zm35.78-20.5a1.276,1.276,0,0,0,1.28-1.28v-1.71a1.28,1.28,0,0,0-2.56,0v1.71A1.276,1.276,0,0,0,1065.5,2148.84Zm0,8.54a1.276,1.276,0,0,0,1.28-1.28v-1.71a1.28,1.28,0,0,0-2.56,0v1.71A1.276,1.276,0,0,0,1065.5,2157.38Zm0,8.54a1.276,1.276,0,0,0,1.28-1.28v-1.71a1.28,1.28,0,0,0-2.56,0v1.71A1.276,1.276,0,0,0,1065.5,2165.92Zm0,8.54a1.276,1.276,0,0,0,1.28-1.28v-1.71a1.28,1.28,0,0,0-2.56,0v1.71A1.276,1.276,0,0,0,1065.5,2174.46Zm-22.57-47.39a1.282,1.282,0,0,0-1.28-1.28h-10.22a1.28,1.28,0,0,0,0,2.56h10.22A1.289,1.289,0,0,0,1042.93,2127.07Z" transform="translate(-1008 -2107)"/>
</svg>
